<svg xmlns="http://www.w3.org/2000/svg" width="17" height="17" viewBox="0 0 17 17">
  <path id="icons8-sun" d="M11.99,3.978a.6.6,0,0,0-.591.608v1.2a.6.6,0,0,0,1.2,0v-1.2a.6.6,0,0,0-.609-.608ZM6.761,6.148a.6.6,0,0,0-.418,1.03l.848.848a.6.6,0,0,0,.849-.849l-.848-.848a.6.6,0,0,0-.431-.181Zm10.459,0a.6.6,0,0,0-.412.181l-.848.848a.6.6,0,0,0,.849.849l.848-.848a.6.6,0,0,0-.437-1.03ZM12,7.585a4.4,4.4,0,1,0,4.4,4.4A4.4,4.4,0,0,0,12,7.585Zm-7.4,3.8a.6.6,0,1,0,0,1.2H5.8a.6.6,0,1,0,0-1.2Zm13.6,0a.6.6,0,1,0,0,1.2h1.2a.6.6,0,1,0,0-1.2ZM7.6,15.759a.6.6,0,0,0-.412.181l-.848.848a.6.6,0,1,0,.849.849l.848-.848a.6.6,0,0,0-.437-1.03Zm8.773,0a.6.6,0,0,0-.418,1.03l.848.848a.6.6,0,1,0,.849-.849l-.848-.848a.6.6,0,0,0-.431-.181ZM11.99,17.571a.6.6,0,0,0-.591.608v1.2a.6.6,0,0,0,1.2,0v-1.2a.6.6,0,0,0-.609-.608Z" transform="translate(-3.5 -3.478)" fill="#5f5f5f" stroke="rgba(0,0,0,0)" stroke-miterlimit="10" stroke-width="1"/>
</svg>
