<svg xmlns="http://www.w3.org/2000/svg" width="16" height="16" viewBox="0 0 16 16">
  <path id="icons8-moon_and_stars" d="M15.372,2.978a.571.571,0,0,0-.562.579v.571h-.571a.571.571,0,1,0,0,1.142h.571v.571a.571.571,0,0,0,1.143,0V5.271h.571a.571.571,0,1,0,0-1.142h-.571V3.558a.571.571,0,0,0-.58-.579Zm-4.943,1.15A7.425,7.425,0,1,0,16.889,15.2a.571.571,0,0,0-.427-.848,6.666,6.666,0,0,1-5.843-6.607,6.587,6.587,0,0,1,.621-2.791.571.571,0,0,0-.5-.811l-.1-.006C10.575,4.134,10.5,4.129,10.429,4.129Zm6.848,3.8a.571.571,0,0,0-.562.579v.571h-.571a.571.571,0,1,0,0,1.142h.571v.571a.571.571,0,0,0,1.143,0v-.571h.571a.571.571,0,1,0,0-1.142h-.571V8.508a.571.571,0,0,0-.58-.579Z" transform="translate(-3 -2.978)" fill="#d6d6d6"/>
</svg>
